<?xml version="1.0" encoding="UTF-8"?>
<svg width="14px" height="14px" viewBox="0 0 14 14" version="1.1" xmlns="http://www.w3.org/2000/svg" xmlns:xlink="http://www.w3.org/1999/xlink">
    <!-- Generator: Sketch 44.1 (41455) - http://www.bohemiancoding.com/sketch -->
    <title>Path 2</title>
    <desc>Created with Sketch.</desc>
    <defs></defs>
    <g id="web" stroke="none" stroke-width="1" fill="none" fill-rule="evenodd" stroke-linecap="round">
        <g id="项目管理板-cell-hover" transform="translate(-455.000000, -121.000000)" stroke="#A6A6A6" stroke-width="1.2" fill-rule="nonzero">
            <g id="content" transform="translate(20.000000, 97.000000)">
                <g id="Group-2">
                    <g id="icon" transform="translate(432.000000, 21.000000)">
                        <g id="筛选" transform="translate(4.000000, 3.000000)">
                            <path d="M7.64304626,12.9161646 L7.64304626,7.61386168 C7.64304626,7.21444821 7.76784563,6.82501611 8,6.5 L11.7620308,2.80964298 C11.9168004,2.59296557 12,2.33334417 12,2.06706852 C12,1.36148422 11.4280109,0.789495121 10.7224266,0.789495121 L1.44914302,0.789495121 C1.18286737,0.789495121 0.923245973,0.872694705 0.706568563,1.02746428 C0.132410997,1.43757683 -0.000573766608,2.23548541 0.409538781,2.80964298 L4.14304626,6.38613832 C4.37520062,6.71115443 4.5,7.10058652 4.5,7.5 L4.5,11.5989355 L4.5,11.5989355 C4.5,11.675841 4.54409695,11.7459345 4.6134235,11.7792255 L7.35646976,13.0964547 L7.35646976,13.0964547 C7.45604122,13.1442696 7.57552145,13.1023126 7.62333633,13.0027411 C7.6363103,12.9757236 7.64304626,12.9461357 7.64304626,12.9161646 Z" id="Path-2"></path>
                        </g>
                    </g>
                </g>
            </g>
        </g>
    </g>
</svg>