<?xml version="1.0" encoding="UTF-8"?>
<svg width="20px" height="20px" viewBox="0 0 20 20" version="1.1" xmlns="http://www.w3.org/2000/svg" xmlns:xlink="http://www.w3.org/1999/xlink">
    <!-- Generator: Sketch 45.2 (43514) - http://www.bohemiancoding.com/sketch -->
    <title>icon copy 5</title>
    <desc>Created with Sketch.</desc>
    <defs>
        <rect id="path-1" x="0" y="0" width="20" height="20"></rect>
    </defs>
    <g id="Page-1" stroke="none" stroke-width="1" fill="none" fill-rule="evenodd">
        <g id="web" transform="translate(-432.000000, -916.000000)">
            <g id="icon-copy-5" transform="translate(432.000000, 916.000000)">
                <mask id="mask-2" fill="white">
                    <use xlink:href="#path-1"></use>
                </mask>
                <g id="boxIcon"></g>
                <path d="M6.17419785,5.6 L8.54628404,10.8221719 C8.60851649,10.9591773 8.61474072,11.1025643 8.57828852,11.2316344 C8.13910642,13.0237495 7.01104238,13.988932 5.30574824,13.988932 C3.60046823,13.988932 2.47240875,13.0237655 2.03321888,11.2316789 C1.99766115,11.1057407 2.00274618,10.9660593 2.0609861,10.831695 L4.69214943,4.76138251 C4.81112835,4.48688825 5.0848578,4.36831845 5.33691357,4.40720493 C5.36730556,4.40246185 5.39845317,4.4 5.43017578,4.4 L9.42060563,4.4 L9.42060563,3.67400896 C9.42060563,3.34263811 9.68923478,3.07400896 10.0206056,3.07400896 C10.3519765,3.07400896 10.6206056,3.34263811 10.6206056,3.67400896 L10.6206056,4.4 L14.6110355,4.4 C14.6144079,4.4 14.6177739,4.40002782 14.6211331,4.40008325 C14.8441646,4.39640889 15.0690969,4.5133247 15.1774474,4.75185941 L17.9347875,10.8221719 C17.99702,10.9591773 18.0032442,11.1025643 17.966792,11.2316344 C17.5276099,13.0237495 16.3995459,13.988932 14.6942518,13.988932 C12.9889717,13.988932 11.8609123,13.0237655 11.4217224,11.2316789 C11.3861647,11.1057407 11.3912497,10.9660593 11.4494896,10.831695 L13.7171561,5.6 L10.6206056,5.6 L10.6206056,15.725991 L14.5904299,15.725991 C14.9218007,15.725991 15.1904299,15.9946202 15.1904299,16.325991 C15.1904299,16.6573619 14.9218007,16.925991 14.5904299,16.925991 L5.40957015,16.925991 C5.0781993,16.925991 4.80957015,16.6573619 4.80957015,16.325991 C4.80957015,15.9946202 5.0781993,15.725991 5.40957015,15.725991 L9.42060563,15.725991 L9.42060563,5.6 L6.17419785,5.6 Z M3.44945069,11.6703125 C3.81758786,12.4383571 4.41834545,12.788932 5.30574824,12.788932 C6.19315104,12.788932 6.79390863,12.4383571 7.1620458,11.6703125 L3.44945069,11.6703125 Z M12.8379542,11.6703125 C13.2060914,12.4383571 13.806849,12.788932 14.6942518,12.788932 C15.5816546,12.788932 16.1824121,12.4383571 16.5505493,11.6703125 L12.8379542,11.6703125 Z M12.9140073,10.4703125 L16.4569655,10.4703125 L14.6440055,6.4790627 L12.9140073,10.4703125 Z M3.52550375,10.4703125 L7.06846197,10.4703125 L5.25550202,6.4790627 L3.52550375,10.4703125 Z" id="Combined-Shape" fill="#383838" fill-rule="nonzero" mask="url(#mask-2)"></path>
            </g>
        </g>
    </g>
</svg>