<?xml version="1.0" encoding="UTF-8"?>
<svg width="20px" height="20px" viewBox="0 0 20 20" version="1.1" xmlns="http://www.w3.org/2000/svg" xmlns:xlink="http://www.w3.org/1999/xlink">
    <!-- Generator: Sketch 45 (43475) - http://www.bohemiancoding.com/sketch -->
    <title>icon</title>
    <desc>Created with Sketch.</desc>
    <defs>
        <polygon id="path-1" points="0 20 20 20 20 0 0 0"></polygon>
    </defs>
    <g id="Page-1" stroke="none" stroke-width="1" fill="none" fill-rule="evenodd">
        <g id="web" transform="translate(-432.000000, -724.000000)">
            <g id="icon" transform="translate(432.000000, 724.000000)">
                <mask id="mask-2" fill="white">
                    <use xlink:href="#path-1"></use>
                </mask>
                <g id="boxIcon"></g>
                <path d="M10.8485,10 L15.4245,5.424 C15.6585,5.19 15.6585,4.81 15.4245,4.576 C15.1905,4.341 14.8105,4.341 14.5755,4.576 L10.0005,9.152 L5.4245,4.576 C5.1905,4.341 4.8105,4.341 4.5755,4.576 C4.3415,4.81 4.3415,5.19 4.5755,5.424 L9.1515,10 L4.5755,14.576 C4.3415,14.81 4.3415,15.19 4.5755,15.424 C4.6925,15.541 4.8465,15.6 5.0005,15.6 C5.1535,15.6 5.3075,15.541 5.4245,15.424 L10.0005,10.848 L14.5755,15.424 C14.6925,15.541 14.8465,15.6 15.0005,15.6 C15.1535,15.6 15.3075,15.541 15.4245,15.424 C15.6585,15.19 15.6585,14.81 15.4245,14.576 L10.8485,10 L10.8485,10 Z" id="fill" fill="#000000" mask="url(#mask-2)"></path>
            </g>
        </g>
    </g>
</svg>