<?xml version="1.0" encoding="UTF-8"?>
<svg width="20px" height="20px" viewBox="0 0 20 20" version="1.1" xmlns="http://www.w3.org/2000/svg" xmlns:xlink="http://www.w3.org/1999/xlink">
    <!-- Generator: Sketch 45.1 (43504) - http://www.bohemiancoding.com/sketch -->
    <title>icon</title>
    <desc>Created with Sketch.</desc>
    <defs></defs>
    <g id="Symbols" stroke="none" stroke-width="1" fill="none" fill-rule="evenodd">
        <g id="leftSelection/date" transform="translate(-20.000000, -18.000000)" fill="#3DA8F5">
            <g id="cell/settingSelect">
                <g>
                    <g id="icon" transform="translate(20.000000, 18.000000)">
                        <path d="M15.294,16.8 L4.706,16.8 C4.272,16.8 3.906,16.434 3.906,16 L3.906,8.282 L16.094,8.282 L16.094,16 C16.094,16.434 15.728,16.8 15.294,16.8 L15.294,16.8 Z M4.706,4.612 L6.146,4.612 L6.146,5.038 C6.146,5.369 6.415,5.638 6.746,5.638 C7.078,5.638 7.346,5.369 7.346,5.038 L7.346,4.612 L12.654,4.612 L12.654,5.038 C12.654,5.369 12.922,5.638 13.254,5.638 C13.586,5.638 13.854,5.369 13.854,5.038 L13.854,4.612 L15.294,4.612 C15.728,4.612 16.094,4.978 16.094,5.412 L16.094,7.082 L3.906,7.082 L3.906,5.412 C3.906,4.978 4.272,4.612 4.706,4.612 L4.706,4.612 Z M15.294,3.412 L13.854,3.412 L13.854,2.6 C13.854,2.269 13.586,2 13.254,2 C12.922,2 12.654,2.269 12.654,2.6 L12.654,3.412 L7.346,3.412 L7.346,2.6 C7.346,2.269 7.078,2 6.746,2 C6.415,2 6.146,2.269 6.146,2.6 L6.146,3.412 L4.706,3.412 C3.606,3.412 2.706,4.312 2.706,5.412 L2.706,16 C2.706,17.1 3.606,18 4.706,18 L15.294,18 C16.394,18 17.294,17.1 17.294,16 L17.294,5.412 C17.294,4.312 16.394,3.412 15.294,3.412 L15.294,3.412 Z" id="fill"></path>
                    </g>
                </g>
            </g>
        </g>
    </g>
</svg>