<?xml version="1.0" encoding="UTF-8"?>
<svg width="21px" height="20px" viewBox="0 0 21 20" version="1.1" xmlns="http://www.w3.org/2000/svg" xmlns:xlink="http://www.w3.org/1999/xlink">
    <!-- Generator: Sketch 45.1 (43504) - http://www.bohemiancoding.com/sketch -->
    <title>icon</title>
    <desc>Created with Sketch.</desc>
    <defs></defs>
    <g id="Symbols" stroke="none" stroke-width="1" fill="none" fill-rule="evenodd">
        <g id="comp/rightPanel" transform="translate(-143.000000, -14.000000)" fill="#808080">
            <g id="main">
                <g transform="translate(39.000000, 14.000000)">
                    <g id="map" transform="translate(104.000000, 0.000000)">
                        <g id="icon" transform="translate(0.582031, 0.000000)">
                            <path d="M14.8242,16.8008 C14.1132,16.8008 13.5342,16.2218 13.5342,15.5108 C13.5342,14.7998 14.1132,14.2208 14.8242,14.2208 C15.5352,14.2208 16.1142,14.7998 16.1142,15.5108 C16.1142,16.2218 15.5352,16.8008 14.8242,16.8008 L14.8242,16.8008 Z M5.1752,11.4588 C4.4642,11.4588 3.8862,10.8808 3.8862,10.1698 C3.8862,9.4588 4.4642,8.8798 5.1752,8.8798 C5.8862,8.8798 6.4652,9.4588 6.4652,10.1698 C6.4652,10.8808 5.8862,11.4588 5.1752,11.4588 L5.1752,11.4588 Z M14.8242,3.1998 C15.5352,3.1998 16.1142,3.7788 16.1142,4.4888 C16.1142,5.1998 15.5352,5.7788 14.8242,5.7788 C14.1132,5.7788 13.5342,5.1998 13.5342,4.4888 C13.5342,3.7788 14.1132,3.1998 14.8242,3.1998 L14.8242,3.1998 Z M14.8242,13.0218 C14.0232,13.0218 13.3172,13.4078 12.8612,13.9968 L7.6022,10.7098 C7.6412,10.5358 7.6652,10.3558 7.6652,10.1698 C7.6652,9.9828 7.6412,9.8038 7.6022,9.6288 L13.0462,6.2258 C13.4982,6.6898 14.1272,6.9788 14.8242,6.9788 C16.1972,6.9788 17.3142,5.8618 17.3142,4.4888 C17.3142,3.1168 16.1972,1.9998 14.8242,1.9998 C13.4512,1.9998 12.3342,3.1168 12.3342,4.4888 C12.3342,4.7328 12.3802,4.9638 12.4462,5.1858 L7.0552,8.5558 C6.5982,8.0238 5.9292,7.6798 5.1752,7.6798 C3.8032,7.6798 2.6862,8.7968 2.6862,10.1698 C2.6862,11.5418 3.8032,12.6588 5.1752,12.6588 C5.9292,12.6588 6.5982,12.3148 7.0552,11.7838 L12.3752,15.1078 C12.3532,15.2398 12.3342,15.3728 12.3342,15.5108 C12.3342,16.8838 13.4512,17.9998 14.8242,17.9998 C16.1972,17.9998 17.3142,16.8838 17.3142,15.5108 C17.3142,14.1378 16.1972,13.0218 14.8242,13.0218 L14.8242,13.0218 Z" id="fill" transform="translate(10.000200, 9.999800) rotate(-270.000000) translate(-10.000200, -9.999800) "></path>
                        </g>
                    </g>
                </g>
            </g>
        </g>
    </g>
</svg>