<?xml version="1.0" encoding="UTF-8"?>
<svg width="20px" height="20px" viewBox="0 0 20 20" version="1.1" xmlns="http://www.w3.org/2000/svg" xmlns:xlink="http://www.w3.org/1999/xlink">
    <!-- Generator: Sketch 45.1 (43504) - http://www.bohemiancoding.com/sketch -->
    <title>icon</title>
    <desc>Created with Sketch.</desc>
    <defs></defs>
    <g id="目标地图" stroke="none" stroke-width="1" fill="none" fill-rule="evenodd">
        <g id="目标地图-hover" transform="translate(-549.000000, -426.000000)" fill="#808080">
            <g id="box-copy" transform="translate(537.000000, 413.000000)">
                <g id="tag" transform="translate(12.000000, 13.000000)">
                    <g id="icon">
                        <path d="M10,2 C5.582,2 2,5.582 2,10 C2,14.418 5.582,18 10,18 C14.418,18 18,14.418 18,10 C18,5.582 14.418,2 10,2 L10,2 Z M10,3.2 C13.75,3.2 16.8,6.25 16.8,10 C16.8,13.75 13.75,16.8 10,16.8 C6.25,16.8 3.2,13.75 3.2,10 C3.2,6.25 6.25,3.2 10,3.2 L10,3.2 Z" id="fill"></path>
                        <path d="M13.3331,10.6001 L6.6661,10.6001 C6.3351,10.6001 6.0661,10.3311 6.0661,10.0001 C6.0661,9.6681 6.3351,9.4001 6.6661,9.4001 L13.3331,9.4001 C13.6651,9.4001 13.9331,9.6681 13.9331,10.0001 C13.9331,10.3311 13.6651,10.6001 13.3331,10.6001" id="fill"></path>
                        <path d="M10.0001,13.9326 C9.6681,13.9326 9.4001,13.6636 9.4001,13.3326 L9.4001,6.6666 C9.4001,6.3346 9.6681,6.0666 10.0001,6.0666 C10.3321,6.0666 10.6001,6.3346 10.6001,6.6666 L10.6001,13.3326 C10.6001,13.6636 10.3321,13.9326 10.0001,13.9326" id="fill"></path>
                    </g>
                </g>
            </g>
        </g>
    </g>
</svg>