<?xml version="1.0" encoding="UTF-8"?>
<svg width="20px" height="20px" viewBox="0 0 20 20" version="1.1" xmlns="http://www.w3.org/2000/svg" xmlns:xlink="http://www.w3.org/1999/xlink">
    <!-- Generator: Sketch 45.1 (43504) - http://www.bohemiancoding.com/sketch -->
    <title>icon-new</title>
    <desc>Created with Sketch.</desc>
    <defs></defs>
    <g id="Symbols" stroke="none" stroke-width="1" fill="none" fill-rule="evenodd">
        <g id="comp/rightPanel" transform="translate(-39.000000, -14.000000)" fill="#3DA8F5">
            <g id="main">
                <g transform="translate(39.000000, 14.000000)">
                    <g id="newObject">
                        <g id="icon-new">
                            <path d="M10.6000935,13.3332398 C10.6000935,13.6641657 10.3313929,13.9328663 9.99975983,13.9335734 C9.83429685,13.9335734 9.68439021,13.8656912 9.57620287,13.7575038 C9.46730843,13.6486094 9.40013328,13.4994098 9.39942618,13.3332398 L9.40013328,10.600272 L6.66645847,10.600272 C6.50099548,10.600272 6.35108884,10.5323898 6.24290151,10.4242025 C6.13400706,10.315308 6.06683192,10.1661085 6.06683192,10.0006455 C6.06683192,9.66830531 6.33553249,9.39960473 6.66716558,9.40031184 L9.40013328,9.39960473 L9.40013328,6.66734413 C9.40013328,6.33500394 9.66812675,6.06701047 10.0004669,6.06701047 C10.3313929,6.06701047 10.6000935,6.33571105 10.6000935,6.66663702 L10.6000935,9.40031184 L13.3330612,9.39960473 C13.6646943,9.40031184 13.9333949,9.66901241 13.9333949,9.99993839 C13.9326878,10.3315715 13.6646943,10.5995649 13.3330612,10.600272 L10.6000935,10.5995649 L10.6000935,13.3332398 L10.6000935,13.3332398 Z M10.0004,1.9996 C5.5814,1.9996 2.0004,5.5816 2.0004,9.9996 C2.0004,14.4186 5.5814,17.9996 10.0004,17.9996 C14.4184,17.9996 18.0004,14.4186 18.0004,9.9996 C18.0004,5.5816 14.4184,1.9996 10.0004,1.9996 L10.0004,1.9996 Z" id="iconAdd"></path>
                        </g>
                    </g>
                </g>
            </g>
        </g>
    </g>
</svg>