<?xml version="1.0" encoding="UTF-8"?>
<svg width="20px" height="20px" viewBox="0 0 20 20" version="1.1" xmlns="http://www.w3.org/2000/svg" xmlns:xlink="http://www.w3.org/1999/xlink">
    <!-- Generator: Sketch 45 (43475) - http://www.bohemiancoding.com/sketch -->
    <title>icon</title>
    <desc>Created with Sketch.</desc>
    <defs>
        <polygon id="path-1" points="0 20 20 20 20 0 0 0"></polygon>
    </defs>
    <g id="Page-1" stroke="none" stroke-width="1" fill="none" fill-rule="evenodd">
        <g id="web" transform="translate(-384.000000, -724.000000)">
            <g id="icon" transform="translate(384.000000, 724.000000)">
                <mask id="mask-2" fill="white">
                    <use xlink:href="#path-1"></use>
                </mask>
                <g id="boxIcon"></g>
                <path d="M15.8331,6.4248 L4.1661,6.4248 C3.8351,6.4248 3.5661,6.1558 3.5661,5.8248 C3.5661,5.4928 3.8351,5.2248 4.1661,5.2248 L15.8331,5.2248 C16.1651,5.2248 16.4331,5.4928 16.4331,5.8248 C16.4331,6.1558 16.1651,6.4248 15.8331,6.4248 L15.8331,6.4248 Z" id="fill" fill="#000000" mask="url(#mask-2)"></path>
                <path d="M15.8331,10.5913 L4.1661,10.5913 C3.8351,10.5913 3.5661,10.3223 3.5661,9.9913 C3.5661,9.6593 3.8351,9.3913 4.1661,9.3913 L15.8331,9.3913 C16.1651,9.3913 16.4331,9.6593 16.4331,9.9913 C16.4331,10.3223 16.1651,10.5913 15.8331,10.5913" id="fill" fill="#000000" mask="url(#mask-2)"></path>
                <path d="M15.8331,14.7754 L4.1661,14.7754 C3.8351,14.7754 3.5661,14.5064 3.5661,14.1754 C3.5661,13.8444 3.8351,13.5764 4.1661,13.5764 L15.8331,13.5764 C16.1651,13.5764 16.4331,13.8444 16.4331,14.1754 C16.4331,14.5064 16.1651,14.7754 15.8331,14.7754" id="fill" fill="#000000" mask="url(#mask-2)"></path>
            </g>
        </g>
    </g>
</svg>