<?xml version="1.0" encoding="UTF-8"?>
<svg width="20px" height="20px" viewBox="0 0 20 20" version="1.1" xmlns="http://www.w3.org/2000/svg" xmlns:xlink="http://www.w3.org/1999/xlink">
    <!-- Generator: Sketch 45.1 (43504) - http://www.bohemiancoding.com/sketch -->
    <title>icon</title>
    <desc>Created with Sketch.</desc>
    <defs></defs>
    <g id="Symbols" stroke="none" stroke-width="1" fill="none" fill-rule="evenodd">
        <g id="comp/rightPanel" transform="translate(-248.000000, -14.000000)" fill="#808080">
            <g id="main">
                <g transform="translate(39.000000, 14.000000)">
                    <g id="setting" transform="translate(209.000000, 0.000000)">
                        <g id="icon">
                            <path d="M10.0001,8.2002 C9.0071,8.2002 8.2001,9.0072 8.2001,10.0002 C8.2001,10.9922 9.0071,11.8002 10.0001,11.8002 C10.9931,11.8002 11.8001,10.9922 11.8001,10.0002 C11.8001,9.0072 10.9931,8.2002 10.0001,8.2002 L10.0001,8.2002 Z M10.0001,13.0002 C8.3461,13.0002 7.0001,11.6542 7.0001,10.0002 C7.0001,8.3462 8.3461,7.0002 10.0001,7.0002 C11.6541,7.0002 13.0001,8.3462 13.0001,10.0002 C13.0001,11.6542 11.6541,13.0002 10.0001,13.0002 L10.0001,13.0002 Z" id="fill"></path>
                            <path d="M9.2584,16.8008 L10.7414,16.8008 L11.5064,15.0668 C11.5704,14.9208 11.6894,14.8068 11.8384,14.7488 C12.3324,14.5578 12.7894,14.2948 13.1964,13.9668 C13.3204,13.8668 13.4794,13.8228 13.6364,13.8378 L15.5184,14.0418 L16.2594,12.7578 L15.1384,11.2268 C15.0444,11.0978 15.0054,10.9378 15.0294,10.7808 C15.0694,10.5258 15.0964,10.2658 15.0964,9.9998 C15.0964,9.7338 15.0694,9.4748 15.0294,9.2188 C15.0054,9.0618 15.0444,8.9018 15.1384,8.7738 L16.2594,7.2418 L15.5184,5.9578 L13.6374,6.1628 C13.4794,6.1748 13.3194,6.1338 13.1964,6.0328 C12.7904,5.7058 12.3334,5.4428 11.8384,5.2518 C11.6894,5.1938 11.5704,5.0798 11.5064,4.9338 L10.7414,3.1998 L9.2584,3.1998 L8.4934,4.9338 C8.4294,5.0798 8.3104,5.1938 8.1614,5.2518 C7.6654,5.4438 7.2094,5.7068 6.8044,6.0328 C6.6804,6.1328 6.5204,6.1748 6.3624,6.1628 L4.4824,5.9578 L3.7404,7.2418 L4.8614,8.7738 C4.9554,8.9018 4.9944,9.0618 4.9694,9.2188 C4.9304,9.4748 4.9034,9.7338 4.9034,9.9998 C4.9034,10.2658 4.9304,10.5258 4.9694,10.7808 C4.9944,10.9378 4.9554,11.0978 4.8614,11.2268 L3.7404,12.7578 L4.4824,14.0418 L6.3634,13.8378 C6.5184,13.8228 6.6804,13.8668 6.8044,13.9678 C7.2104,14.2948 7.6664,14.5578 8.1614,14.7488 C8.3104,14.8068 8.4294,14.9208 8.4934,15.0668 L9.2584,16.8008 Z M11.1334,17.9998 L8.8674,17.9998 C8.6294,17.9998 8.4144,17.8608 8.3184,17.6428 L7.4934,15.7718 C7.0514,15.5798 6.6354,15.3408 6.2524,15.0568 L4.2224,15.2778 C3.9824,15.2988 3.7574,15.1868 3.6384,14.9808 L2.5054,13.0198 C2.3864,12.8138 2.4004,12.5568 2.5404,12.3648 L3.7494,10.7138 C3.7184,10.4598 3.7034,10.2238 3.7034,9.9998 C3.7034,9.7758 3.7184,9.5408 3.7494,9.2858 L2.5404,7.6348 C2.4004,7.4438 2.3864,7.1868 2.5054,6.9808 L3.6384,5.0188 C3.7574,4.8138 3.9874,4.7028 4.2224,4.7218 L6.2524,4.9438 C6.6344,4.6598 7.0504,4.4208 7.4934,4.2288 L8.3184,2.3578 C8.4144,2.1408 8.6294,1.9998 8.8674,1.9998 L11.1324,1.9998 C11.3704,1.9998 11.5854,2.1408 11.6814,2.3578 L12.5064,4.2288 C12.9484,4.4208 13.3644,4.6598 13.7474,4.9438 L15.7774,4.7218 C16.0154,4.6978 16.2424,4.8128 16.3624,5.0188 L17.4944,6.9808 C17.6134,7.1868 17.5994,7.4438 17.4594,7.6348 L16.2504,9.2858 C16.2814,9.5408 16.2964,9.7758 16.2964,9.9998 C16.2964,10.2238 16.2814,10.4598 16.2504,10.7138 L17.4594,12.3648 C17.5994,12.5568 17.6134,12.8138 17.4944,13.0198 L16.3624,14.9808 C16.2434,15.1878 16.0154,15.3028 15.7784,15.2778 L13.7474,15.0568 C13.3634,15.3408 12.9474,15.5798 12.5064,15.7718 L11.6814,17.6428 C11.5864,17.8608 11.3704,17.9998 11.1334,17.9998 L11.1334,17.9998 Z" id="fill"></path>
                        </g>
                    </g>
                </g>
            </g>
        </g>
    </g>
</svg>